<?xml version="1.0" encoding="UTF-8"?><svg id="Laag_1" xmlns="http://www.w3.org/2000/svg" viewBox="0 0 627.1 657.33"><defs><style>.cls-1{fill:#e14140;}.cls-2{fill:#dd6465;}.cls-3{fill:#dd6160;}.cls-4{fill:#a92a26;}.cls-5{fill:#dd5c5b;}.cls-6{fill:#e37070;}.cls-7{fill:#e9514f;}.cls-8{fill:#e44443;}.cls-9{fill:#f2f2f2;}.cls-10{fill:#f95a5a;}.cls-11{fill:#ce7776;}.cls-12{fill:#f5f4f4;}.cls-13{fill:#cc6663;}.cls-14{fill:#f2f1f1;}.cls-15{fill:#bb6d6c;}.cls-16{fill:#dd7f7d;}.cls-17{fill:#f5f5f5;}.cls-18{fill:#e84946;}.cls-19{fill:#e34342;}.cls-20{fill:#d45355;}.cls-21{fill:#f3f3f3;}.cls-22{fill:#030202;}</style></defs><path class="cls-19" d="M209.99,34.42c6.52,2.96,11.13,5.9,17,10,4.74,4.77,10.35,8.55,15.06,13.45,2.91,3.04,8,9.07,10.94,12.55,2.48,2.92,2.24,3.05,4,6,5.18,8.7,9.39,16.79,13.33,25.68.16.36,1.55.36,1.69,1,.76,3.54-4.71,8.23-7.02,11.32-1.65,2.2-5.87,9.92-8.5,10.02-2.88-3.23-5.59-6.77-8.5-10.02-8.86-9.91-17.68-17.83-30-24-.14-.39.3-1.23-.16-1.82-.73-.92-18.24-8.35-20.62-8.91-3.2-.75-7.97-1.46-11.22-1.28-5.87.34-13.1,4.13-16,9-3.16,2.4-3.1,2.84-4,6-.09.31.08.69,0,1-2.48-.67-2.5,2.19-2.71,3.75-1.07,7.91-.1,13.32,3,20.51.65,1.51.15,3.27,2.71,2.74,7.29,15.34,33.16,33.32,48,41,4.75,2.46,4.75,2.4,10,4,.31.09.7-.09,1,0-.52,2.34,1.73,2.54,3.3,3.16,4.1,1.64,9.18,3.2,13.46,4.58,1.6.52,3.76-.13,5.26.74s3.77,7.96,2.57,9.59c-31.05,7.53-64.66.01-93.86-11.3-4.87-1.88-10.93-4.13-15.48-6.48-1.57-.81-2.72-3.73-6.25-3.29-6.86-4.68-22.43-16.62-24-25-.67-3.58-.9-2.16-3.15-6.34-11.88-22.06-9.65-50.01.15-71.66,2.28-5.02,3.35-7.45,7-12l7.95-7.55c25.52-19.78,56.33-19.48,85.05-6.45Z"/><path class="cls-8" d="M395.99,47.42c.25,0,1.09,1.37,1.99,1.01-.08-2.97,7.91-8.3,10.84-9.9,30.99-16.87,63.82-19.53,92.78,2.31,2.68,2.02,4.83,6.54,8.39,7.58.16.23-.15.77,0,1,1.78,2.66,3.31,5.74,5.01,8.5.81,1.32.79,2.96,2.99,2.5.09.31-.1.7,0,1,6.04,17.74,9.38,34.01,5.54,53.04-1.31,6.47-4.54,12.44-5.54,18.96-.7,1.24-2.15,2.74-3,4-5.23-.44-3.7-4.49-7-5,.17-1.24-.09-2.7,0-4,.65-.08,1.34.08,2,0v-3.99s-1.99,0-1.99,0c-.08,1.32.08,2.67,0,3.99-.85.1-1.77-.47-2.01.51-.9,3.65-.06,3.17,2.01,3.49-.34,2.48-3.3,2.74-2,7.01h-3.99s-.97-5.55-.97-5.55c-1.84-.36-11.56-3.22-10.61.58,5.23,11.77-4.06,6.83-1.44-1.02-6.61,1.49-6.13-1.3-9.06-3.44-1.8-1.32-5.68-1.13-7.04-2.96-2.15-2.91-.64-13.1-6.9-12.6l-.51,3.01-3.49-2.01c2.32-8.4,3.41-18.5-2.57-25.97-.89-1.11-2.24-.85-2.43-1.03-3.03-2.92-2.98-3.11-7-5,.14-2.63-1.45-2.54-3.2-3.3-9.81-4.26-22.62.21-30.8,6.3-11.31,4.99-20.17,13.15-29,21-1.29.14-6.45,3.74-6.79,4.23-.48.7-.08,1.55-.21,1.77-.32.16-1.25-.31-1.77.21-1.41,1.79-6.3,8.07-7.91,8.65-3.08,1.11-1.53-2.25-4.32-1.85-.15-.23.16-.78,0-1-3.24-4.53-7.85-7.91-11.54-12.04-.72-1.61.92-5.68,1.54-7.96.09-.32-.1-.71,0-1,2.49.55,2.04-1.3,2.8-2.65,2.68-4.69,4.88-10.28,7.2-14.35,5.77-10.14,15.02-23.88,25.01-29.01l-.97-1.93c2.35.78,5.02-3.08,5.96-3.06Z"/><path class="cls-18" d="M337.99,124.42c7.72,5.61,11.28,10.31,15,19,2.11,8.95,2.27,21.63-2.68,29.73-1.39,2.28-5.07,2.36-4.32,6.27-5.89,5.92-7.22,6.11-15,8-16.17,3.93-28.55,3.98-44-3-.28-.13-.74.13-1,0-1.05-3.79-6.4-6.27-8.31-9.25-8.6-13.38-6.52-33.19,4.31-44.75.11-.12,1.12.17,1.66-.34s.22-1.56.34-1.66c9.95-8.35,25.21-11.63,38.26-9.76,5.61.8,10.37,4.37,15.74,5.76Z"/><path class="cls-1" d="M461.99,115.42l3.49,2.01.51-3.01c6.25-.5,4.75,9.7,6.9,12.6,1.36,1.84,5.24,1.65,7.04,2.96,2.93,2.15,2.45,4.94,9.06,3.44-2.62,7.86,6.67,12.8,1.44,1.02-.95-3.79,8.77-.94,10.61-.58l.97,5.55h3.99c-1.29-4.26,1.66-4.52,2-7-2.07-.32-2.91.16-2.01-3.49.24-.98,1.16-.41,2.01-.51.09-1.32-.07-2.68,0-3.99h1.99s0,3.99,0,3.99c-.65.08-1.35-.08-2,0-.09,1.3.17,2.76,0,4,3.3.51,1.77,4.56,7,5-3.96,5.87-10.93,15.37-17,19-1.05.63-1.69-.81-4,2-4.28,5.2-3.61,2.22-7.98,4.57-.64.34-3.55,3.79-5.81,5.15-8.49,5.11-18.74,6.18-27.21,11.29-1.33.34-2.67.68-4,1-24.44,5.8-51.57,11.24-76,3,3.64-11.23,9.52-8.75,18.53-11.97,17.38-6.19,29.52-12.67,42.47-24.03.35-.31.65-.69,1-1,1.4.37,2.1-.6,3-1,.32-.14,1.21.39,1.78-.25,4.05-4.58,9.24-10.95,14.26-16.03.82-.83,2.3-.56,2.67-.94,1.1-1.15,4.69-10.58,5.29-12.77ZM491.98,156.42h-1.99v1.99h1.99v-1.99Z"/><path class="cls-14" d="M377.99,149.41c-1.16-.91,18.19-19.9,19.99-21.5,7.95-7.09,26.13-21.36,35.98-24.02,8.59-2.32,6.47,4.14,3.03,9.03-11.88,16.87-39.21,31.53-59,36.49Z"/><path class="cls-14" d="M248.99,149.41c-14.06-2.31-27.78-9.97-39.31-18.18-9.06-6.44-22.5-16.21-23.68-27.81,25.81,5.44,45.35,27.73,62.99,45.98Z"/><path class="cls-3" d="M136.99,163.42c3.53-.44,4.68,2.48,6.25,3.29,4.55,2.35,10.61,4.59,15.48,6.48,29.2,11.31,62.81,18.83,93.86,11.3,1.2-1.63-1.06-8.72-2.57-9.59s-3.66-.22-5.26-.74c-4.28-1.38-9.36-2.95-13.46-4.58-1.56-.62-3.82-.83-3.3-3.16,7.9,2.46,15.58,5.67,23.77,7.23l5.21,11.28c-.05.96-10.59,3.11-12.58,3.39-32.27,4.65-80.41-6.51-107.4-24.9Z"/><path class="cls-2" d="M395.99,47.42c15.9-15.97,41.92-25.13,64.54-24.04,17.56.84,39.44,10.28,49.46,25.04-3.56-1.04-5.72-5.56-8.39-7.58-28.95-21.83-61.79-19.17-92.78-2.31-2.93,1.6-10.92,6.93-10.84,9.9-.9.36-1.74-1.01-1.99-1.01Z"/><path class="cls-5" d="M448.99,180.42c.61,2.96-1.48,1.75-3.19,2.26-24.75,7.4-50.43,8.19-75.81,3.73-.76-2.09,1.73-2.43,2-3h1c24.43,8.24,51.56,2.8,76-3Z"/><path class="cls-3" d="M116.99,48.42c20.73-25.86,53.75-30.47,84.16-19.66,2.11.75,8.95,3.01,8.84,5.66-28.72-13.03-59.53-13.33-85.05,6.45l-7.95,7.55Z"/><path class="cls-2" d="M517.99,133.42c1-6.52,4.23-12.5,5.54-18.96,3.85-19.02.5-35.29-5.54-53.04,2.26,1.42,3.16,5.07,4.01,7.49,7.28,20.58,6.83,45.21-4.01,64.51Z"/><path class="cls-5" d="M109.99,60.42c-9.8,21.65-12.03,49.6-.15,71.66,2.25,4.18,2.48,2.76,3.15,6.34-4.25-1.47-6.7-9.17-8.17-13.33-7.15-20.07-6.75-42.58,2.34-62.07.69-1.47.53-3.11,2.84-2.61Z"/><path class="cls-3" d="M433.99,147.42c-12.94,11.36-25.09,17.84-42.47,24.03-9.02,3.21-14.89.73-18.53,11.97h-1c1.07-2.27,1.91-7.85,4.03-9.47s13.95-3.9,17.74-5.26c14.79-5.34,27.4-12.29,40.23-21.27Z"/><path class="cls-5" d="M461.99,115.42c-.61,2.19-4.19,11.63-5.29,12.77-.36.38-1.84.11-2.67.94-5.03,5.08-10.21,11.46-14.26,16.03-.57.64-1.46.11-1.78.25v-1c13.14-12.24,26.56-25.44,23.76-45.26-.67-4.74-3.51-6.57-4.76-10.74.19.18,1.54-.08,2.43,1.03,5.98,7.47,4.89,17.57,2.57,25.97Z"/><path class="cls-2" d="M309.99,116.42c.32,1.5,3.59,1.56,4,0,10.46.09,15.82,2.06,24,8-5.37-1.39-10.13-4.96-15.74-5.76-13.05-1.87-28.32,1.41-38.26,9.76-.12.1.18,1.18-.34,1.66-.54.51-1.55.22-1.66.34-10.84,11.56-12.91,31.37-4.31,44.75,1.92,2.98,7.26,5.45,8.31,9.25-13.64-6.76-17.61-26.32-13.47-39.97,1.9-6.28,5.82-9.91,9.47-14.03,1.13-1.27,1.05-1.09,2-2,7.34-7.06,14.33-11.05,26-12Z"/><path class="cls-13" d="M330.99,187.42c.64,3.07-6.72,3.7-8.62,3.88-10.67,1.01-27.23.68-35.38-6.88,15.45,6.98,27.83,6.93,44,3Z"/><path class="cls-5" d="M449.99,83.42c-12.32-5.8-22.18-2.21-34,3,8.18-6.09,20.99-10.56,30.8-6.3,1.76.76,3.34.67,3.2,3.3Z"/><path class="cls-2" d="M345.99,179.42c-.75-3.91,2.93-3.99,4.32-6.27,4.95-8.1,4.78-20.78,2.68-29.73,5.84,13.65,3.52,25.43-7,36Z"/><path class="cls-2" d="M165.99,94.42c-2.82,10.85-1.83,16.83,3,27-2.56.53-2.06-1.22-2.71-2.74-3.09-7.18-4.06-12.59-3-20.51.21-1.57.23-4.42,2.71-3.75Z"/><path class="cls-5" d="M185.99,78.42v2c-2.08.28-8.09,2.44-10.13,3.41-.43.2-5.59,3.38-5.87,3.59,2.9-4.87,10.13-8.66,16-9Z"/><path class="cls-3" d="M185.99,78.42c3.26-.19,8.03.53,11.22,1.28,2.38.56,19.89,7.99,20.62,8.91.46.58.02,1.42.16,1.82,12.32,6.17,21.14,14.09,30,24-1.96.02-2.78-1.35-4.02-2.48-6.12-5.59-12.01-11.69-18.75-16.48-1.52-1.08-6.81-2.94-7.08-3.22-.51-.53,0-1.43-.15-1.83-9-4.51-21.86-11.35-32-10v-2Z"/><path class="cls-2" d="M496.99,158.42c-6.67,9.11-33.51,18.29-44,21,8.47-5.11,18.72-6.18,27.21-11.29,2.26-1.36,5.17-4.8,5.81-5.15,4.37-2.35,3.69.63,7.98-4.57l2.41-.91.59.91Z"/><path class="cls-2" d="M365.99,81.42c-2.32,4.08-4.52,9.66-7.2,14.35-.77,1.34-.31,3.2-2.8,2.65,1.88-5.71,5.95-12.61,10-17Z"/><path class="cls-3" d="M226.99,166.42c-5.25-1.6-5.25-1.54-10-4,3.6-.25,7.33,1.66,10,4Z"/><path class="cls-2" d="M509.99,49.42c2.22-.5,2.12,1.23,2.98,2.47,1.86,2.68,4.05,5.37,5.02,8.53-2.2.46-2.18-1.18-2.99-2.5-1.69-2.76-3.23-5.84-5.01-8.5Z"/><path class="cls-2" d="M264.99,114.42c2.31-3.09,7.78-7.78,7.02-11.32-.14-.64-1.53-.64-1.69-1-3.94-8.89-8.16-16.98-13.33-25.68,2.64,1.62,4.44,4.89,6.01,7.49,1.99,3.31,10.49,18.63,10.85,21.25.11.83.31,1.55-.32,2.25l-8.55,7.01Z"/><path class="cls-2" d="M252.99,70.42c-2.95-3.48-8.03-9.51-10.94-12.55-4.7-4.9-10.31-8.68-15.06-13.45,2.08,1.45,4.11,2.02,6.53,3.97,7.07,5.73,14.29,14.56,19.47,22.03Z"/><path class="cls-2" d="M365.99,119.42c-5.14-3.33-8.33-9.65-13.93-12.1l3.93-7.9c-.62,2.28-2.26,6.36-1.54,7.96,3.69,4.13,8.3,7.5,11.54,12.04Z"/><path class="cls-2" d="M386.99,107.42c-2.71,2.41-4.28,4.68-7,6-2.25,3.73-4.36,4.86-7.54,7.93-1.17,1.13-1.63,3-2.96,4.05-1.45-1.46-2.39-3.29-3.5-4.98,2.79-.4,1.25,2.97,4.32,1.85,1.61-.58,6.5-6.86,7.91-8.65.52-.51,1.45-.05,1.77-.21.13-.21-.27-1.06.21-1.77.34-.49,5.5-4.1,6.79-4.23Z"/><path class="cls-2" d="M165.99,93.42c.9-3.16.84-3.6,4-6-1.22,2.04-1.62,4.84-4,6Z"/><path class="cls-3" d="M437.99,144.42v1c-.9.4-1.6,1.37-3,1,1.32-1.16,2.79-1.81,3-2Z"/><path class="cls-18" d="M313.99,116.42c-.41,1.56-3.68,1.5-4,0,1.3-.11,2.69-.01,4,0Z"/><path class="cls-7" d="M497.99,156.42c.07.93-.53,1.36-1,2l-.59-.91-2.41.91c2.31-2.81,2.95-1.37,4-2Z"/><rect class="cls-7" x="489.99" y="156.42" width="1.99" height="1.99"/><path class="cls-22" d="M293.09,95.31c13.06-1.16,25.93-2.02,38.91.68,24.59-57.59,83.64-111.58,150.75-91.84,67.8,19.94,86.92,103.96,44.21,156.74l-6.97,7.52c16.49,1.86,32.96,4.46,49.33,7.17,9.81,1.63,43.86,5.75,50.18,9.82,3.68,2.37,6.01,7.2,6.49,11.51,3.47,30.95-2.53,68.29-.09,99.92-.39,2.84-2.39,7.54-4.37,9.63-2.16,2.29-9.06,4.68-9.36,5.14s-1.15,6.97-1.23,8.27l.08,219.08c-.92,10.45-7.21,13.43-15.78,17.22-89.31,29.97-176.35,67.7-265.75,97.25-10.53,3.48-13.98,5.39-25.49,2.46L26,553.9c-5.35-2.02-8.87-6.13-10.52-11.48-.91-69.41-.12-139.13-1.29-208.51-.12-7.08,2.07-14.89-.35-22.35-7.28-1.23-12.07-6.27-12.86-13.64,2.3-32.8-3.06-69.74-.04-102.04.71-7.62,3.79-10.2,10.84-12.16l94.2-15.31c-14.75-14.75-25.05-34.79-27.88-55.61C66.4,26.85,150.39-27.59,225.29,14.62c29.5,16.62,56.35,49.05,67.8,80.69ZM116.99,48.42c-3.65,4.55-4.72,6.98-7,12-2.31-.5-2.15,1.13-2.84,2.61-9.09,19.48-9.48,41.99-2.34,62.07,1.48,4.15,3.92,11.85,8.17,13.33,1.57,8.38,17.14,20.32,24,25,26.99,18.39,75.12,29.55,107.4,24.9,1.99-.29,12.52-2.43,12.58-3.39l-5.21-11.28c-8.19-1.56-15.87-4.77-23.77-7.23-.3-.09-.69.09-1,0-2.67-2.34-6.4-4.25-10-4-14.84-7.68-40.71-25.66-48-41-4.83-10.17-5.82-16.15-3-27,.08-.31-.09-.69,0-1,2.38-1.16,2.78-3.96,4-6,.28-.21,5.44-3.39,5.87-3.59,2.04-.97,8.04-3.13,10.13-3.41,10.14-1.35,23,5.49,32,10,.14.4-.36,1.3.15,1.83.27.28,5.56,2.13,7.08,3.22,6.74,4.79,12.63,10.89,18.75,16.48,1.24,1.13,2.05,2.51,4.02,2.48,2.91,3.25,5.62,6.79,8.5,10.02,2.63-.1,6.85-7.82,8.5-10.02l8.55-7.01c.63-.71.43-1.43.32-2.25-.36-2.62-8.86-17.94-10.85-21.25-1.57-2.6-3.37-5.87-6.01-7.49-1.76-2.95-1.52-3.08-4-6-5.18-7.47-12.4-16.29-19.47-22.03-2.41-1.96-4.44-2.52-6.53-3.97-5.87-4.1-10.48-7.04-17-10,.11-2.65-6.74-4.91-8.84-5.66-30.4-10.81-63.43-6.21-84.16,19.66ZM395.99,47.42c-.94-.02-3.62,3.84-5.96,3.06l.97,1.93c-9.99,5.13-19.24,18.87-25.01,29.01-4.05,4.39-8.12,11.29-10,17-.1.29.09.68,0,1l-3.93,7.9c5.6,2.45,8.79,8.76,13.93,12.1.16.22-.15.77,0,1,1.11,1.69,2.05,3.52,3.5,4.98,1.33-1.05,1.79-2.91,2.96-4.05,3.18-3.07,5.29-4.21,7.54-7.93,2.72-1.32,4.29-3.59,7-6,8.83-7.85,17.69-16.01,29-21,11.82-5.21,21.68-8.8,34-3,4.02,1.89,3.97,2.08,7,5,1.25,4.17,4.09,6.01,4.76,10.74,2.8,19.82-10.62,33.01-23.76,45.26-.21.19-1.68.84-3,2-.35.31-.65.69-1,1-12.83,8.98-25.44,15.94-40.23,21.27-3.79,1.37-15.67,3.69-17.74,5.26s-2.97,7.19-4.03,9.47c-.26.56-2.76.91-2,3,25.38,4.46,51.06,3.67,75.81-3.73,1.7-.51,3.79.7,3.19-2.26,1.33-.32,2.67-.66,4-1,10.49-2.71,37.33-11.89,44-21,.47-.64,1.07-1.07,1-2,6.07-3.63,13.04-13.13,17-19,.85-1.26,2.3-2.76,3-4,10.85-19.31,11.29-43.93,4.01-64.51-.86-2.42-1.76-6.07-4.01-7.49-.1-.3.09-.69,0-1-.97-3.16-3.16-5.85-5.02-8.53-.86-1.24-.76-2.97-2.98-2.47-.15-.23.16-.77,0-1-10.02-14.76-31.9-24.2-49.46-25.04-22.62-1.08-48.64,8.07-64.54,24.04ZM248.99,149.41c-17.65-18.26-37.19-40.54-62.99-45.98,1.18,11.6,14.62,21.37,23.68,27.81,11.53,8.2,25.26,15.86,39.31,18.18ZM377.99,149.41c19.79-4.96,47.12-19.62,59-36.49,3.44-4.89,5.56-11.35-3.03-9.03-9.86,2.66-28.03,16.94-35.98,24.02-1.79,1.6-21.14,20.59-19.99,21.5ZM309.99,116.42c-11.67.95-18.66,4.94-26,12-.95.91-.87.73-2,2-3.65,4.12-7.57,7.75-9.47,14.03-4.14,13.66-.17,33.21,13.47,39.97.26.13.72-.13,1,0,8.15,7.55,24.71,7.89,35.38,6.88,1.9-.18,9.27-.8,8.62-3.88,7.78-1.89,9.11-2.08,15-8,10.52-10.57,12.84-22.35,7-36-3.72-8.69-7.28-13.39-15-19-8.18-5.94-13.54-7.91-24-8-1.31-.01-2.7-.11-4,0ZM173.99,202.42c-15.53-2.73-30.35-8.32-44.5-15.09l-61.5,11.1c-.25,1.53,1.87,1.18,3,1.47,12.15,3.08,53.34,13.41,63.24,12.26,11.92-1.38,25.52-5.88,38.24-7.77,1.34-.2,3.28-.57,1.51-1.97ZM563.98,198.43l-65.47-10.99-14.27,6.74-29.25,9.22,44.3,9.69c20.18-5.51,41.51-8.02,61.68-13.19,1.14-.29,3.25.06,3-1.47ZM238.99,224.42c16.61-3.97,33.17-9.34,50-12,.46-2.61-.37-1.55-1.43-2.09-4.26-2.16-9.71-3.24-14.05-6-31.37,6.99-63.39,11.43-94.75,18.36-1.81.4-6.02.84-6.76,2.72,8.89,1.38,18.07,5.21,26.8,6.73,7.45,1.3,6.56-.52,12.2-1.72,9.24-1.96,18.72-3.78,28-6ZM344.99,208.42c-.32.08-.7-.09-1,0-.72.22-9.25,2.28-7,4,4.44.17,8.93,1.24,13.21,2.29,21.16,5.22,49.85,14.77,70.54,17.45,7.8,1.01,23.97-3.99,32.47-6.02.99-.24,3.01-.31,2.77-1.7l-99.6-19.91c-4.03-.8-8.72.69-11.39,3.9ZM23.99,210.42v79.5l5.22,2.78,84.78,23.72c-2.19-27.44-.35-55.31-1.1-82.9l-88.9-23.1ZM601.99,213.42l-86.61,20.82c-1.07,0-2.39,2.04-2.39,2.68v79.5l89-25v-78ZM375.99,243.42l-61.58-14.94-65.44,15.44,64.51,16.53c20.02-6.03,41.01-9.09,61.04-15,1.46-.43,1.74.58,1.47-2.02ZM136.99,364.42c-.01,31.98-.04,64.02,0,96,.04,35.86.02,71.74-.06,107.61-.21,1.3.39,1.64,1.06,2.39,1.31,1.48,29.49,11.39,34,13,6.33,2.26,13.07,3.71,19,7,1.66-1.04,1-3.79,1.02-5.49.84-80.13-.02-160.39-.02-240.51v-91c-1.22-.89-2.61-.79-4-1l-52-14,1,126ZM489.99,468.42l1.99-230-57.99,14.01v3.99c.79,98.14-1.06,196.37-.02,294.51.02,1.69-.64,4.45,1.02,5.49.04,11.32-.03,22.68,0,34l3.99-2c8.94-.49,24.32-8.42,33-12,.33-.05.67.03,1,0,5.19-.53,2.11-1.19,3-2,.23-.21,4.6-1.26,6-2l8.04-2.68c-.03-33.77-.08-67.57-.04-101.32ZM301.99,368.42v-85.5l-87-24.5v86l87,24ZM411.99,259.42l-87,23.5v85.5l87-24.5v-84.5ZM113.98,561.42l-.09-219.35-76.9-22.65.95,214.34,76.04,27.66ZM588.99,319.42l-75.9,21.1c-.01,73.67-.04,147.34-1.09,220.9l76.99-27.5v-214.5ZM301.99,393.42l-87-25-1.07,228.54,88.07,32.46v-236ZM411.98,368.42l-86.86,25.13-1.12,235.86,88.87-31.62-.88-229.37Z"/><polygon class="cls-17" points="411.98 368.42 412.86 597.79 323.99 629.41 325.12 393.55 411.98 368.42"/><polygon class="cls-17" points="301.99 393.42 301.99 629.42 213.92 596.96 214.99 368.41 301.99 393.42"/><path class="cls-19" d="M489.99,262.42c-1.66,1.04-1,3.79-1.02,5.49-1.14,91.92,1.86,184.22-1.03,275.97-.25,8.06.74,16.7-.09,24.91-.29.83-4.55,2.94-5.87,3.63-1.4.74-5.77,1.79-6,2h-3s0,2,0,2c-.33.03-.67-.05-1,0-5.73.79-10.49,2.67-15.97,4.53s-12.59,4.78-18.03,7.47c-.72-.12-2.14.52-2.02-.61.07-63.79-.03-127.61.02-191.39l.13-141.87,53.86-14.13v22Z"/><path class="cls-17" d="M588.99,319.42v214.5l-76.99,27.5c1.05-73.56,1.08-147.23,1.09-220.9l75.9-21.1Z"/><polygon class="cls-17" points="113.98 561.42 37.94 533.76 36.99 319.41 113.89 342.06 113.98 561.42"/><polygon class="cls-17" points="301.99 368.42 214.99 344.42 214.99 258.42 301.99 282.92 301.99 368.42"/><polygon class="cls-17" points="411.99 259.42 411.99 343.92 324.99 368.42 324.99 282.92 411.99 259.42"/><path class="cls-17" d="M23.99,210.42l88.9,23.1c.75,27.59-1.09,55.46,1.1,82.9l-84.78-23.72-5.22-2.78v-79.5Z"/><path class="cls-12" d="M601.99,213.42v78l-89,25v-79.5c0-.64,1.32-2.68,2.39-2.68l86.61-20.82Z"/><path class="cls-21" d="M375.99,243.42c.28,2.6,0,1.59-1.47,2.02-20.03,5.91-41.01,8.97-61.04,15l-64.51-16.53,65.44-15.44,61.58,14.94Z"/><path class="cls-9" d="M173.99,202.42c1.76,1.4-.17,1.77-1.51,1.97-12.72,1.89-26.33,6.39-38.24,7.77-9.9,1.15-51.09-9.18-63.24-12.26-1.13-.29-3.25.06-3-1.47l61.5-11.1c14.14,6.77,28.97,12.36,44.5,15.09Z"/><path class="cls-9" d="M563.98,198.43c.24,1.53-1.87,1.18-3,1.47-20.17,5.17-41.5,7.68-61.68,13.19l-44.3-9.69,29.25-9.22,14.27-6.74,65.47,10.99Z"/><path class="cls-8" d="M344.99,208.42c4.23-1.09,7.78-3.04,12.38-1.87l91.61,17.88-25.51,6.06c-25.79-6.62-52.28-11.23-77.99-18.08-2.85-.76-1.17-1.76-1.5-4,.3-.09.68.08,1,0Z"/><path class="cls-7" d="M191.99,253.42v91c0,80.13.86,160.38.02,240.51-.02,1.69.64,4.45-1.02,5.49l-1-122c.11-54.11,1.57-107.8.81-161.5l-.74-51.95-3.07-2.55c.32.05.67-.05,1,0,1.39.21,2.78.11,4,1Z"/><path class="cls-13" d="M433.99,256.42v-3.99s57.99-14.01,57.99-14.01l-1.99,230c.09-68.65-.07-137.35,0-206v-22s-53.87,14.13-53.87,14.13l-.13,141.87h-1c0-44.81.49-89.7.02-134.51-.02-1.69.64-4.45-1.02-5.49Z"/><path class="cls-3" d="M344.99,208.42c2.67-3.21,7.36-4.7,11.39-3.9l99.6,19.91c.24,1.4-1.77,1.47-2.77,1.7-8.51,2.03-24.68,7.03-32.47,6.02-20.7-2.68-49.39-12.23-70.54-17.45-4.29-1.06-8.77-2.12-13.21-2.29-2.25-1.72,6.28-3.77,7-4,.33,2.24-1.35,3.24,1.5,4,25.71,6.85,52.2,11.46,77.99,18.08l25.51-6.06-91.61-17.88c-4.6-1.17-8.15.78-12.38,1.87Z"/><path class="cls-10" d="M489.99,468.42c-.04,33.76,0,67.56.04,101.32l-8.04,2.68c1.32-.69,5.58-2.8,5.87-3.63.83-8.21-.16-16.85.09-24.91,2.88-91.76-.11-184.05,1.03-275.97.02-1.69-.64-4.45,1.02-5.49-.07,68.65.09,137.35,0,206Z"/><path class="cls-20" d="M187.99,252.42c-.33-.05-.68.05-1,0-1.54-.25-3.36.15-5.23-.24-14.58-3.05-29.24-8.31-43.76-11.76-.03,30.65.02,61.35,0,92-1.66,1.04-1,3.79-1.02,5.49-.09,8.83.02,17.69.02,26.51l-1-126,52,14Z"/><path class="cls-4" d="M434.99,396.42c0,53.31-.18,106.69,0,160-1.66-1.04-1-3.79-1.02-5.49-1.03-98.15.81-196.37.02-294.51,1.66,1.04,1,3.79,1.02,5.49.47,44.81-.02,89.71-.02,134.51Z"/><path class="cls-3" d="M210.99,230.42c-5.64,1.2-4.74,3.02-12.2,1.72-8.73-1.52-17.91-5.35-26.8-6.73.74-1.88,4.95-2.32,6.76-2.72,31.37-6.93,63.38-11.37,94.75-18.36,4.34,2.76,9.79,3.84,14.05,6,1.06.54,1.89-.52,1.43,2.09-16.83,2.66-33.39,8.03-50,12l1-2c14-3.35,27.83-7.72,42.01-10.5l.99-1.49-6.7-3.8c-31.09,4.03-62.2,11.16-93.05,17.53-1.73.36-3.49.29-5.24.26l26.53,6.49c1.88-.28,3.59-1.16,5.46-1.5l1,1Z"/><path class="cls-16" d="M435.99,396.42c-.05,63.78.05,127.6-.02,191.39-.12,1.12,1.3.48,2.02.61.3.05.69.02,1,0l-3.99,2c-.04-11.32.03-22.68,0-34-.18-53.31,0-106.69,0-160h1Z"/><path class="cls-10" d="M171.99,582.42v1c-4.51-1.61-32.69-11.52-34-13v-110c0-21.98-.01-44.02,0-66l1.13,174.37c.78,2.23,16.69,6.58,20.11,7.89,4.27,1.63,8.68,4.25,12.76,5.74Z"/><path class="cls-11" d="M137.99,394.42c-.01,21.98,0,44.02,0,66h-1c-.04-31.98-.01-64.02,0-96,0-8.82-.11-17.68-.02-26.51.02-1.69-.64-4.45,1.02-5.49-.02,20.65,0,41.35,0,62Z"/><path class="cls-6" d="M190.99,590.42c-5.93-3.29-12.67-4.74-19-7v-1c.73.27,2.47-.05,3.97.48,4.71,1.68,9.36,3.74,14.02,5.52.08-39.98-.07-80.02,0-120l1,122Z"/><path class="cls-15" d="M137.99,570.42c-.67-.75-1.27-1.09-1.06-2.39.08-35.87.1-71.75.06-107.61h1v110Z"/><path class="cls-5" d="M471.99,576.42c-8.68,3.58-24.06,11.51-33,12-.31.02-.7.05-1,0,5.44-2.69,12.3-5.54,18.03-7.47s10.24-3.73,15.97-4.53Z"/><path class="cls-2" d="M239.99,222.42l-1,2c-9.28,2.22-18.76,4.04-28,6l-1-1c9.68-1.76,20.3-4.68,30-7Z"/><path class="cls-5" d="M475.99,574.42c-.89.81,2.19,1.47-3,2v-2s3,0,3,0Z"/><path class="cls-19" d="M186.99,252.42l3.07,2.55.74,51.95c.77,53.7-.7,107.39-.81,161.5-.08,39.98.07,80.02,0,120-4.66-1.78-9.31-3.84-14.02-5.52-1.5-.53-3.24-.21-3.97-.48-4.07-1.49-8.49-4.11-12.76-5.74-3.43-1.31-19.33-5.66-20.11-7.89l-1.13-174.37c0-20.65-.02-41.35,0-62,.03-30.65-.02-61.35,0-92,14.53,3.44,29.18,8.71,43.76,11.76,1.87.39,3.69-.01,5.23.24Z"/><path class="cls-19" d="M209.99,229.42c-1.88.34-3.58,1.22-5.46,1.5l-26.53-6.49c1.75.03,3.51.1,5.24-.26,30.84-6.38,61.96-13.51,93.05-17.53l6.7,3.8-.99,1.49c-14.17,2.78-28.01,7.15-42.01,10.5-9.7,2.32-20.32,5.24-30,7Z"/></svg>